<?xml version='1.0' encoding='utf-8'?>
<!DOCTYPE svg PUBLIC '-//W3C//DTD SVG 1.1//EN' 'http://www.w3.org/Graphics/SVG/1.1/DTD/svg11.dtd'>
<svg version="1.1" xmlns="http://www.w3.org/2000/svg" viewBox="0 0 512 512" xmlns:xlink="http://www.w3.org/1999/xlink" enable-background="new 0 0 512 512" style="fill:rgb(256,256,256);enable-background:new 0 0 38.976 38.976;">
  <g>
    <g>
      <path d="m445.2,349.3c-2.3-21.1-7.7-40.8-13.9-59.4h-350.6c-6.2,18.6-11.9,38.3-13.9,59.4-4.1,42.7 26.2,60 33,63.7-10.7,18.6-17.8,41.2-17.2,68.1 0.2,11.1 9.3,20 20.4,20 0.1,0 0.3,0 0.4,0 11.3-0.2 20.2-9.5 20-20.8-0.5-24.6 8.6-44.3 20.6-59.7h223.8c12.1,15.4 21.2,35.1 20.8,59.7-0.2,11.3 8.7,20.6 20,20.8 0.1,0 0.3,0 0.4,0 11.1,0 20.2-8.9 20.4-20 0.5-26.9-6.6-49.4-17.2-68.1 6.8-3.7 37.6-21.3 33-63.7z"/>
      <path d="m276.4,140.6v108.4h137.9c-31.1-60.5-80.6-100.6-137.9-108.4z"/>
      <path d="M480.6,11H32.5c-10.2,0-19.6,6.9-21.2,17C9.2,40.8,19,51.8,31.4,51.8h204.2V92h40.8V51.8h203.1c10.2,0,19.6-6.9,21.2-17    C502.8,22.1,493,11,480.6,11z"/>
      <path d="M97.7,249h137.9V140.6C178.3,148.4,128.8,188.5,97.7,249z"/>
    </g>
  </g>
</svg>
