<?xml version="1.0" encoding="iso-8859-1"?>
<!-- Generator: Adobe Illustrator 19.0.0, SVG Export Plug-In . SVG Version: 6.00 Build 0)  -->
<svg version="1.1" id="Layer_1" xmlns="http://www.w3.org/2000/svg" xmlns:xlink="http://www.w3.org/1999/xlink" x="0px" y="0px"
	 viewBox="0 0 468.667 468.667" style="fill:rgb(238,238,238);enable-background:new 0 0 38.976 38.976;" xml:space="preserve">
<g>
	<circle cx="162.667" cy="179.834" r="82.667"/>
	<path d="M162.666,17.167C74.365,17.167,2.271,87.89,0.053,175.668L0,176v26.56c0,16.568,13.431,30,30,30
		c11.312,0,21.159-6.264,26.27-15.51C52.151,205.245,50,192.705,50,179.833c0-14.094,2.571-27.792,7.49-40.561H36.35
		c17.179-53.374,67.306-92.106,126.316-92.106s109.138,38.732,126.317,92.106h-21.14c4.919,12.769,7.49,26.467,7.49,40.561
		c0,12.872-2.151,25.411-6.27,37.216c5.111,9.246,14.957,15.51,26.27,15.51c16.569,0,30-13.431,30-30V176l-0.053-0.332
		C323.063,87.89,250.969,17.167,162.666,17.167z"/>
	<path d="M238.757,323.379V451.5h72.909C311.667,397.011,282.411,349.361,238.757,323.379z"/>
	<path d="M13.667,451.5h62.929V329.863C38.519,356.855,13.667,401.274,13.667,451.5z"/>
	<path d="M106.596,313.422V451.5h102.161V309.778c-14.515-4.718-30.003-7.278-46.091-7.278
		C142.831,302.5,123.905,306.386,106.596,313.422z"/>
	<polygon points="337.901,349.207 337.901,379.207 388.284,379.207 388.284,451.5 418.284,451.5 418.284,379.207 468.667,379.207 
		468.667,349.207 	"/>
	<polygon points="427.078,200.422 379.49,200.422 373.419,329.206 433.149,329.206 	"/>
</g>
<g>
</g>
<g>
</g>
<g>
</g>
<g>
</g>
<g>
</g>
<g>
</g>
<g>
</g>
<g>
</g>
<g>
</g>
<g>
</g>
<g>
</g>
<g>
</g>
<g>
</g>
<g>
</g>
<g>
</g>
</svg>
